<?xml version="1.0" encoding="UTF-8" standalone="no"?>
<!-- Created with Inkscape (http://www.inkscape.org/) -->

<svg
   width="129.3468"
   height="129.39502"
   viewBox="0 0 129.3468 129.39502"
   version="1.1"
   id="svg1"
   xml:space="preserve"
   xmlns="http://www.w3.org/2000/svg"
   xmlns:svg="http://www.w3.org/2000/svg"><defs
     id="defs1"><linearGradient
       id="swatch21"><stop
         style="stop-color:#4997a4;stop-opacity:1;"
         offset="0"
         id="stop21" /></linearGradient><linearGradient
       id="swatch20"><stop
         style="stop-color:#539a94;stop-opacity:1;"
         offset="0"
         id="stop20" /></linearGradient><linearGradient
       id="swatch4"><stop
         style="stop-color:#53919a;stop-opacity:1;"
         offset="0"
         id="stop4" /></linearGradient></defs><g
     id="layer4"
     style="display:inline;opacity:1"
     transform="translate(-1537.7773,-893.28217)"><g
       id="layer10"
       style="display:inline"><g
         id="g188"
         style="display:inline"
         transform="translate(386.28778,-1.8571528)"><g
           id="g185"
           style="display:inline"><rect
             style="display:inline;fill:#c0c0c0;fill-opacity:1;stroke:none;stroke-width:1.94495;stroke-dasharray:none;stroke-opacity:1"
             id="rect182"
             width="126.84677"
             height="126.89497"
             x="1152.7396"
             y="896.38934"
             ry="19.336893" /><path
             d="m 1279.4707,1006.0391 -0.6289,-0.6172 -11.4258,-11.21487 -2.6992,-2.38672 v 5.06641 l 2.3223,2.1914 9.1679,9.05668 2.2715,2.2304 c 0.483,-1.3792 0.8317,-2.822 0.9922,-4.3261 z"
             style="display:inline;opacity:0.243;mix-blend-mode:lighten;fill:#ffffff;stroke-width:4.0855"
             id="path182" /><path
             d="m 1279.5859,987.63086 -7.25,-7.11719 -7.8066,-6.65039 0.1875,11.75 4.4336,4.13477 8.9805,8.7539 1.455,1.42774 z"
             style="display:inline;mix-blend-mode:lighten;fill:#ffffff;fill-opacity:0.453577;stroke-width:4.0855"
             id="path183" /><path
             d="m 1152.7402,935.50391 1.1114,0.88281 7.7363,6.74805 6.4863,5.74804 1.1602,-3.71875 -5.0117,-4.55078 -7.668,-7.14648 -3.8145,-3.01758 z"
             style="display:inline;opacity:0.243;mix-blend-mode:lighten;fill:#ffffff;stroke-width:4.0855"
             id="path184" /><path
             d="m 1152.7402,924.95117 2.7364,2.17383 6.9687,5.94727 5.6309,4.8164 1.1582,-10.02344 -1.1602,-1.08398 -6.9004,-6.34766 -7.8066,-6.17578 -0.6074,1.06641 c 0,0.13519 -0.02,0.26647 -0.02,0.40234 z"
             style="display:inline;mix-blend-mode:lighten;fill:#ffffff;fill-opacity:0.453577;stroke-width:4.0855"
             id="path185" /><rect
             style="display:inline;fill:none;fill-opacity:1;stroke:#8e9098;stroke-width:2.5;stroke-dasharray:none;stroke-opacity:1"
             id="rect185"
             width="126.84677"
             height="126.89497"
             x="1152.7396"
             y="896.38934"
             ry="19.336893" /></g><g
           id="g187"
           style="display:inline"><rect
             style="display:inline;fill:#dfdfdf;fill-opacity:1;stroke:none;stroke-width:1.945;stroke-dasharray:none;stroke-opacity:1"
             id="rect186"
             width="94.982079"
             height="95.01841"
             x="1168.672"
             y="912.32764"
             ry="14.479382" /><rect
             style="display:inline;fill:none;fill-opacity:1;stroke:#8e9098;stroke-width:2.5;stroke-dasharray:none;stroke-opacity:1"
             id="rect187"
             width="94.982079"
             height="95.01841"
             x="1168.672"
             y="912.32764"
             ry="14.479382" /></g><path
           d="m 1280.735,959.38867 v -44.48925 c 0,-10.87858 -8.7796,-19.63748 -19.6863,-19.63748 h -89.7712 c -10.9068,0 -19.6864,8.7589 -19.6864,19.63748 v 42.99774 c 7.1647,6.98018 16.4904,11.22198 26.7435,11.22198 h 77.2795 c 9.4974,0 18.1926,-3.65014 25.1209,-9.73047 z"
           style="display:inline;opacity:0.172;mix-blend-mode:color-dodge;fill:#c0c0c0;stroke-width:2.51539"
           id="path187" /></g></g></g></svg>
