<?xml version="1.0" encoding="UTF-8" standalone="no"?>
<!-- Created with Inkscape (http://www.inkscape.org/) -->

<svg
   width="129.3468"
   height="129.39496"
   viewBox="0 0 129.3468 129.39496"
   version="1.1"
   id="svg1"
   xml:space="preserve"
   xmlns="http://www.w3.org/2000/svg"
   xmlns:svg="http://www.w3.org/2000/svg"><defs
     id="defs1"><linearGradient
       id="swatch21"><stop
         style="stop-color:#4997a4;stop-opacity:1;"
         offset="0"
         id="stop21" /></linearGradient><linearGradient
       id="swatch20"><stop
         style="stop-color:#539a94;stop-opacity:1;"
         offset="0"
         id="stop20" /></linearGradient><linearGradient
       id="swatch4"><stop
         style="stop-color:#53919a;stop-opacity:1;"
         offset="0"
         id="stop4" /></linearGradient></defs><g
     id="layer4"
     style="display:inline;opacity:1"
     transform="translate(-1151.4896,-895.13934)"><g
       id="layer7"
       style="display:inline"><g
         id="g174"><g
           id="g155"
           style="display:inline"><rect
             style="display:inline;fill:#c0c0c0;fill-opacity:1;stroke:none;stroke-width:1.94495;stroke-dasharray:none;stroke-opacity:1"
             id="rect154"
             width="126.84677"
             height="126.89497"
             x="1152.7396"
             y="896.38934"
             ry="19.336893" /><path
             d="m 1279.4707,1006.0391 -0.6289,-0.6172 -11.4258,-11.21487 -2.6992,-2.38672 v 5.06641 l 2.3223,2.1914 9.1679,9.05668 2.2715,2.2304 c 0.483,-1.3792 0.8317,-2.822 0.9922,-4.3261 z"
             style="display:inline;opacity:0.243;mix-blend-mode:lighten;fill:#ffffff;stroke-width:4.0855"
             id="path174" /><path
             d="m 1279.5859,987.63086 -7.25,-7.11719 -7.8066,-6.65039 0.1875,11.75 4.4336,4.13477 8.9805,8.7539 1.455,1.42774 z"
             style="display:inline;mix-blend-mode:lighten;fill:#ffffff;fill-opacity:0.453577;stroke-width:4.0855"
             id="path173" /><path
             d="m 1152.7402,935.50391 1.1114,0.88281 7.7363,6.74805 6.4863,5.74804 1.1602,-3.71875 -5.0117,-4.55078 -7.668,-7.14648 -3.8145,-3.01758 z"
             style="display:inline;opacity:0.243;mix-blend-mode:lighten;fill:#ffffff;stroke-width:4.0855"
             id="path172" /><path
             d="m 1152.7402,924.95117 2.7364,2.17383 6.9687,5.94727 5.6309,4.8164 1.1582,-10.02344 -1.1602,-1.08398 -6.9004,-6.34766 -7.8066,-6.17578 -0.6074,1.06641 c 0,0.13519 -0.02,0.26647 -0.02,0.40234 z"
             style="display:inline;mix-blend-mode:lighten;fill:#ffffff;fill-opacity:0.453577;stroke-width:4.0855"
             id="path171" /><rect
             style="display:inline;fill:none;fill-opacity:1;stroke:#8e9098;stroke-width:2.5;stroke-dasharray:none;stroke-opacity:1"
             id="rect155"
             width="126.84677"
             height="126.89497"
             x="1152.7396"
             y="896.38934"
             ry="19.336893" /></g><g
           id="g156"
           style="display:inline"><rect
             style="display:inline;fill:#5b5b5b;fill-opacity:1;stroke:none;stroke-width:1.945;stroke-dasharray:none;stroke-opacity:1"
             id="rect156"
             width="94.982079"
             height="95.01841"
             x="1168.672"
             y="912.32764"
             ry="14.479382" /><rect
             style="display:inline;fill:none;fill-opacity:1;stroke:#dfdfdf;stroke-width:2.5;stroke-dasharray:none;stroke-opacity:1"
             id="rect157"
             width="94.982079"
             height="95.01841"
             x="1168.672"
             y="912.32764"
             ry="14.479382" /></g><path
           d="m 1171.2773,895.26172 c -10.9067,0 -19.6855,8.7601 -19.6855,19.63867 v 42.99609 c 5.0957,4.96445 11.2869,8.53426 18.125,10.1875 V 927.5332 c 0,-7.84519 6.315,-14.16015 14.1602,-14.16015 h 64.5722 c 7.8452,0 14.1602,6.31496 14.1602,14.16015 v 40.91016 c 6.7622,-1.31617 12.9384,-4.50294 18.125,-9.05469 v -44.48828 c 0,-10.87857 -8.7789,-19.63867 -19.6856,-19.63867 z"
           style="display:inline;opacity:0.172;mix-blend-mode:color-dodge;fill:#c0c0c0;stroke-width:2.51539"
           id="path189" /></g></g></g></svg>
